<?xml version="1.0" encoding="UTF-8" standalone="no"?>
<!DOCTYPE svg PUBLIC "-//W3C//DTD SVG 1.1//EN" "http://www.w3.org/Graphics/SVG/1.1/DTD/svg11.dtd">
<svg width="100%" height="100%" viewBox="0 0 700 700" version="1.1" xmlns="http://www.w3.org/2000/svg" xmlns:xlink="http://www.w3.org/1999/xlink" xml:space="preserve" xmlns:serif="http://www.serif.com/" style="fill-rule:evenodd;clip-rule:evenodd;stroke-linejoin:round;stroke-miterlimit:2;">
    <g>
        <g transform="matrix(1.40451,0,0,1.40451,89.5726,0)">
            <path d="M106.239,34.823L102.108,255.565L54.3,232.546L28.005,232.546L18.297,249.206L18.887,278.583L50.759,330.523L83.811,392.496L110.371,452.108L128.668,484.57L312.816,486.931L324.621,429.68L350,338.786L350,249.198L338.196,205.987L321.669,165.852L267.369,148.145L239.629,151.686L227.234,157.589L209.528,146.374L168.212,135.16L159.949,28.628L139.292,16.526L114.503,15.346L106.239,34.823Z" style="fill:white;"/>
        </g>
        <g transform="matrix(1.40451,0,0,1.40451,-131.087,-41.0791)">
            <path d="M507.42,265.07L507.42,202.226L485.643,202.226L485.643,179.203L442.088,179.203L442.088,157.426L393.553,157.426L393.553,179.203L377.373,179.203L377.373,157.426L335.061,157.426L335.061,51.646L313.284,51.646L313.288,29.248L264.753,29.248L264.753,51.025L245.464,51.025L245.464,264.445L228.663,264.445L228.663,242.668L180.128,242.668L180.128,266.313L157.108,266.313L157.108,314.848L178.885,314.848L178.885,357.16L200.666,357.156L200.666,399.468L222.443,399.468L222.443,441.78L244.22,441.78L244.22,485.331L263.509,485.331L263.509,527.643L484.399,527.643L484.395,463.553L506.172,463.553L506.176,379.553L527.953,379.553L527.953,265.063L507.42,265.07ZM501.197,373.34L479.42,373.34L479.42,457.34L457.643,457.34L457.643,499.028L292.753,499.032L292.753,479.118L273.464,479.118L273.464,436.806L251.687,436.806L251.687,394.494L229.91,394.494L229.91,352.182L206.89,352.19L206.89,309.878L185.113,309.878L185.113,271.921L222.445,271.921L222.445,294.944L245.468,294.944L245.468,337.256L273.468,337.256L273.464,57.876L307.066,57.876L307.066,249.516L335.066,249.516L335.066,185.426L371.777,185.426L371.777,249.516L399.777,249.516L399.777,185.426L435.867,185.426L435.867,249.516L463.867,249.516L463.867,208.45L478.179,208.45L478.179,272.54L499.956,272.54L499.956,373.34L501.197,373.34Z" style="fill-rule:nonzero;"/>
        </g>
    </g>
</svg>
